<?xml version="1.0" encoding="UTF-8"?>
<!DOCTYPE svg PUBLIC "-//W3C//DTD SVG 1.1//EN" "http://www.w3.org/Graphics/SVG/1.1/DTD/svg11.dtd">
<svg version="1.1" xmlns="http://www.w3.org/2000/svg" xmlns:xlink="http://www.w3.org/1999/xlink" x="0px" y="0px" width="16" height="16" viewBox="0, 0, 16, 16">
  <g id="download" display="none">
    <path d="M2.461,9.846 L2.461,13.538 L13.539,13.538 L13.539,9.846 L16,9.846 L16,16 L0,16 L0,9.846 z M9.847,0 L9.847,6.154 L12.924,6.154 L8.001,11.077 L3.077,6.154 L6.154,6.154 L6.154,0 z" fill="#FFFFFF"/>
  </g>
  <g id="cv" display="none">
    <path d="M-0,13.539 L-0,12.307 L2.461,12.307 L2.461,13.539 C2.461,13.867 2.338,14.154 2.092,14.4 C1.846,14.647 1.559,14.77 1.231,14.77 C0.903,14.77 0.616,14.647 0.369,14.4 C0.123,14.154 -0,13.867 -0,13.539 M12.308,4.924 L12.308,13.539 C12.308,14.236 12.061,14.81 11.569,15.262 C11.118,15.754 10.544,16 9.846,16 L1.584,16 C2.06,15.985 2.517,15.739 2.954,15.262 C3.446,14.81 3.692,14.236 3.692,13.539 L3.692,2.461 C3.692,2.133 3.815,1.846 4.061,1.6 C4.308,1.354 4.595,1.231 4.923,1.231 C5.251,1.231 5.538,1.354 5.784,1.6 C6.031,1.846 6.154,2.133 6.154,2.461 L6.154,4.924 z M16,2.461 L16,3.692 L7.385,3.692 L7.385,2.461 C7.385,1.805 7.138,1.231 6.646,0.739 C6.209,0.262 5.752,0.016 5.277,-0 L13.538,-0 C14.235,-0 14.81,0.247 15.261,0.739 C15.753,1.231 16,1.805 16,2.461" fill="#FFFFFF"/>
  </g>
  <g id="contact">
    <path d="M0,4.924 L3.692,4.924 L3.692,7.384 L2.461,7.384 L2.461,13.538 L8.615,13.538 L8.615,4.924 L11.077,4.924 L11.077,16 L0,16 z M16,0 L16,11.077 L12.307,11.077 L12.307,8.616 L13.538,8.616 L13.538,2.462 L7.384,2.462 L7.384,11.077 L4.923,11.077 L4.923,0 z" fill="#FFFFFF"/>
  </g>
  <defs/>
</svg>
